<svg xmlns="http://www.w3.org/2000/svg" width="916" height="980" viewBox="0 0 916 980"><rect width="100%" height="100%" fill="#DDDDDD"/><path fill="#999999" d="M201.93 472.51q0 7.32 3.78 11.17 3.78 3.84 10.74 3.84 3.63 0 6.48-1.15 2.84-1.15 4.78-3.15 1.93-1.99 2.93-4.72 1-2.72 1-5.86 0-3.57-1.09-6.39-1.09-2.81-3.09-4.75-1.99-1.93-4.75-2.96-2.75-1.03-6.02-1.03-3.38 0-6.11 1.12-2.72 1.12-4.65 3.11-1.94 2-2.97 4.75-1.03 2.76-1.03 6.02Zm-7.32 61.23 27.17-33.94q1.02-1.27 1.93-2.48.91-1.21 1.76-2.42-3.03 1.93-6.66 2.93-3.63 1-7.62 1-4.54 0-8.89-1.57-4.36-1.57-7.75-4.75-3.39-3.18-5.47-7.87-2.09-4.68-2.09-10.98 0-5.86 2.18-11.01 2.17-5.14 6.11-9.01 3.93-3.87 9.44-6.11 5.5-2.24 12.16-2.24 6.71 0 12.07 2.12 5.35 2.11 9.13 5.93 3.78 3.81 5.81 9.13 2.03 5.33 2.03 11.68 0 4.05-.7 7.68t-1.97 6.99q-1.27 3.36-3.08 6.56-1.82 3.21-4.06 6.36l-20.02 28.55q-1.03 1.45-3.09 2.45-2.05 1-4.65 1h-13.74Zm104.42-11.19h15.73v11.19h-48.4v-11.19h17.73v-51q0-3.03.18-6.24l-12.58 10.53q-1.09.85-2.15 1.06-1.06.21-2 .03-.93-.18-1.66-.63-.73-.46-1.09-1l-4.72-6.48 26.68-22.68h12.28v76.41Zm80.83-76.29-25.95 31.76-3.03 3.75q2.54-1.27 5.48-1.97 2.93-.69 6.32-.69 4.96 0 9.65 1.63 4.69 1.64 8.26 4.93 3.57 3.3 5.75 8.2 2.17 4.9 2.17 11.44 0 6.11-2.23 11.46-2.24 5.35-6.3 9.35-4.05 3.99-9.77 6.29-5.71 2.3-12.61 2.3-7.02 0-12.59-2.24-5.56-2.24-9.49-6.26-3.94-4.03-6.02-9.68-2.09-5.66-2.09-12.56 0-6.17 2.51-12.67t7.77-13.52l20.88-28.01q1.09-1.46 3.17-2.48 2.09-1.03 4.81-1.03h13.31Zm-22.56 76.23q3.57 0 6.56-1.21 3-1.21 5.14-3.39 2.15-2.18 3.36-5.11 1.21-2.94 1.21-6.39 0-3.75-1.15-6.74-1.15-3-3.27-5.08-2.11-2.09-5.08-3.18-2.96-1.09-6.53-1.09-3.57 0-6.48 1.21-2.9 1.21-4.96 3.36-2.05 2.15-3.2 5.08-1.15 2.93-1.15 6.32 0 3.63 1 6.63.99 2.99 2.96 5.11t4.87 3.3q2.9 1.18 6.72 1.18Zm128.26-8.78-7.93 7.81-20.51-20.51-20.69 20.63-7.93-7.8 20.7-20.76-19.73-19.72 7.87-7.86 19.72 19.72 19.6-19.6 7.99 7.86-19.66 19.66 20.57 20.57Zm55.9-41.2q0 7.32 3.78 11.17 3.78 3.84 10.74 3.84 3.63 0 6.47-1.15 2.85-1.15 4.78-3.15 1.94-1.99 2.94-4.72.99-2.72.99-5.86 0-3.57-1.09-6.39-1.08-2.81-3.08-4.75-2-1.93-4.75-2.96t-6.02-1.03q-3.39 0-6.11 1.12t-4.66 3.11q-1.93 2-2.96 4.75-1.03 2.76-1.03 6.02Zm-7.32 61.23 27.16-33.94q1.03-1.27 1.94-2.48.91-1.21 1.75-2.42-3.02 1.93-6.65 2.93-3.63 1-7.63 1-4.53 0-8.89-1.57-4.35-1.57-7.74-4.75-3.39-3.18-5.48-7.87-2.09-4.68-2.09-10.98 0-5.86 2.18-11.01 2.18-5.14 6.11-9.01 3.94-3.87 9.44-6.11 5.51-2.24 12.16-2.24 6.72 0 12.07 2.12 5.36 2.11 9.14 5.93 3.78 3.81 5.8 9.13 2.03 5.33 2.03 11.68 0 4.05-.69 7.68-.7 3.63-1.97 6.99-1.27 3.36-3.09 6.56-1.81 3.21-4.05 6.36l-20.02 28.55q-1.03 1.45-3.09 2.45-2.06 1-4.66 1h-13.73Zm92.62-10.71q3.69 0 6.48-1.06 2.78-1.06 4.69-2.93 1.9-1.88 2.87-4.48.97-2.6.97-5.62 0-7.2-4-10.9-3.99-3.69-11.01-3.69-7.01 0-11.01 3.69-3.99 3.7-3.99 10.9 0 3.02.97 5.62t2.87 4.48q1.91 1.87 4.69 2.93 2.78 1.06 6.47 1.06Zm0-66.49q-3.32 0-5.74 1.03-2.42 1.03-4.03 2.75-1.6 1.73-2.36 3.97-.75 2.23-.75 4.72 0 2.6.63 5.05.64 2.45 2.15 4.35 1.51 1.91 3.99 3.06 2.48 1.15 6.11 1.15 3.63 0 6.11-1.15 2.48-1.15 4-3.06 1.51-1.9 2.14-4.35.64-2.45.64-5.05 0-2.49-.79-4.72-.78-2.24-2.36-3.97-1.57-1.72-3.99-2.75t-5.75-1.03Zm14.77 31.58q7.98 2.6 11.79 7.96 3.81 5.35 3.81 13.1 0 5.81-2.2 10.52-2.21 4.72-6.21 8.05-3.99 3.33-9.58 5.14-5.6 1.82-12.38 1.82-6.77 0-12.37-1.82-5.6-1.81-9.59-5.14-3.99-3.33-6.2-8.05-2.21-4.71-2.21-10.52 0-7.75 3.81-13.1 3.82-5.36 11.8-7.96-6.35-2.66-9.53-7.56-3.17-4.9-3.17-11.8 0-4.96 2.02-9.25 2.03-4.3 5.66-7.48 3.63-3.17 8.68-4.96 5.05-1.78 11.1-1.78t11.1 1.78q5.06 1.79 8.69 4.96 3.63 3.18 5.65 7.48 2.03 4.29 2.03 9.25 0 6.9-3.18 11.8-3.17 4.9-9.52 7.56Zm87.48 1.88q0 11.43-2.45 19.87-2.45 8.44-6.78 13.95-4.32 5.5-10.22 8.2-5.9 2.69-12.74 2.69-6.83 0-12.67-2.69-5.84-2.7-10.14-8.2-4.29-5.51-6.71-13.95T664.88 490q0-11.5 2.42-19.91t6.71-13.91q4.3-5.51 10.14-8.2 5.84-2.69 12.67-2.69 6.84 0 12.74 2.69t10.22 8.2q4.33 5.5 6.78 13.91t2.45 19.91Zm-15.43 0q0-9.5-1.39-15.73t-3.72-9.92q-2.33-3.69-5.36-5.18-3.02-1.48-6.29-1.48-3.2 0-6.2 1.48-2.99 1.49-5.29 5.18-2.3 3.69-3.66 9.92-1.36 6.23-1.36 15.73t1.36 15.73q1.36 6.23 3.66 9.92 2.3 3.69 5.29 5.17 3 1.49 6.2 1.49 3.27 0 6.29-1.49 3.03-1.48 5.36-5.17 2.33-3.69 3.72-9.92 1.39-6.23 1.39-15.73Z"/></svg>