<?xml version="1.0" encoding="utf-8"?>
<!-- Generator: Adobe Illustrator 27.9.3, SVG Export Plug-In . SVG Version: 9.03 Build 53313)  -->
<svg version="1.1" id="livetype" xmlns="http://www.w3.org/2000/svg" xmlns:xlink="http://www.w3.org/1999/xlink" x="0px" y="0px"
	 viewBox="0 0 126.5 40" style="enable-background:new 0 0 126.5 40;" xml:space="preserve">
<style type="text/css">
	.st0{fill:#A6A6A6;}
	.st1{fill:url(#SVGID_1_);}
	.st2{fill:#FFFFFF;}
</style>
<g>
	<g>
		<path class="st0" d="M117,0H9.5C9.2,0,8.8,0,8.4,0C8.1,0,7.8,0,7.5,0c-0.7,0-1.3,0.1-2,0.2C4.9,0.3,4.2,0.5,3.6,0.8
			C3,1.1,2.5,1.5,2,2C1.5,2.5,1.1,3,0.8,3.6C0.5,4.2,0.3,4.9,0.2,5.5C0.1,6.2,0,6.9,0,7.5c0,0.3,0,0.6,0,0.9v23.1c0,0.3,0,0.6,0,0.9
			c0,0.7,0.1,1.3,0.2,2c0.1,0.7,0.3,1.3,0.6,1.9C1.1,37,1.5,37.5,2,38c0.5,0.5,1,0.9,1.6,1.2c0.6,0.3,1.2,0.5,1.9,0.6
			c0.7,0.1,1.3,0.2,2,0.2c0.3,0,0.6,0,0.9,0c0.4,0,0.7,0,1.1,0H117c0.4,0,0.7,0,1.1,0c0.3,0,0.6,0,0.9,0c0.7,0,1.3-0.1,2-0.2
			c0.7-0.1,1.3-0.3,1.9-0.6c0.6-0.3,1.1-0.7,1.6-1.2c0.5-0.5,0.9-1,1.2-1.6c0.3-0.6,0.5-1.2,0.6-1.9c0.1-0.7,0.2-1.3,0.2-2
			c0-0.3,0-0.6,0-0.9c0-0.4,0-0.7,0-1.1V9.5c0-0.4,0-0.7,0-1.1c0-0.3,0-0.6,0-0.9c0-0.7-0.1-1.3-0.2-2c-0.1-0.7-0.3-1.3-0.6-1.9
			c-0.6-1.2-1.6-2.2-2.8-2.8c-0.6-0.3-1.2-0.5-1.9-0.6c-0.7-0.1-1.3-0.2-2-0.2c-0.3,0-0.6,0-0.9,0C117.7,0,117.3,0,117,0L117,0z"/>
		<linearGradient id="SVGID_1_" gradientUnits="userSpaceOnUse" x1="0.873" y1="20.001" x2="125.6345" y2="20.001">
			<stop  offset="0" style="stop-color:#281DFF"/>
			<stop  offset="1" style="stop-color:#C231FF"/>
		</linearGradient>
		<path class="st1" d="M8.4,39.1c-0.3,0-0.6,0-0.9,0c-0.6,0-1.3-0.1-1.9-0.2c-0.6-0.1-1.1-0.3-1.7-0.5c-0.5-0.3-1-0.6-1.4-1
			c-0.4-0.4-0.8-0.9-1-1.4c-0.3-0.5-0.4-1.1-0.5-1.7c-0.1-0.6-0.2-1.2-0.2-1.9c0-0.2,0-0.9,0-0.9V8.4c0,0,0-0.7,0-0.9
			c0-0.6,0.1-1.3,0.2-1.9C1.1,5.1,1.3,4.5,1.6,4c0.3-0.5,0.6-1,1-1.4C3,2.2,3.5,1.9,4,1.6c0.5-0.3,1.1-0.4,1.7-0.5
			c0.6-0.1,1.2-0.2,1.9-0.2l0.9,0h109.6l0.9,0c0.6,0,1.2,0.1,1.9,0.2c0.6,0.1,1.1,0.3,1.7,0.5c1,0.5,1.9,1.4,2.4,2.4
			c0.3,0.5,0.4,1.1,0.5,1.6c0.1,0.6,0.2,1.3,0.2,1.9c0,0.3,0,0.6,0,0.9c0,0.4,0,0.7,0,1.1v20.9c0,0.4,0,0.7,0,1.1c0,0.3,0,0.6,0,0.9
			c0,0.6-0.1,1.2-0.2,1.9c-0.1,0.6-0.3,1.1-0.5,1.7c-0.3,0.5-0.6,1-1,1.4c-0.4,0.4-0.9,0.8-1.4,1c-0.5,0.3-1.1,0.5-1.7,0.5
			c-0.6,0.1-1.2,0.2-1.9,0.2c-0.3,0-0.6,0-0.9,0l-1.1,0L8.4,39.1z"/>
	</g>
	<g>
		<g id="_Group_">
			<g id="_Group_2">
				<g id="_Group_3">
					<path id="_Path_" class="st2" d="M24.8,20.3c0-1.7,0.9-3.3,2.4-4.2c-0.9-1.3-2.4-2.1-4-2.2c-1.7-0.2-3.3,1-4.2,1
						c-0.9,0-2.2-1-3.6-1c-1.9,0.1-3.6,1.1-4.5,2.7c-1.9,3.3-0.5,8.3,1.4,11c0.9,1.3,2,2.8,3.4,2.8c1.4-0.1,1.9-0.9,3.6-0.9
						c1.7,0,2.1,0.9,3.6,0.9c1.5,0,2.4-1.3,3.3-2.7c0.7-0.9,1.2-2,1.5-3.1C25.9,24,24.8,22.2,24.8,20.3z"/>
					<path id="_Path_2" class="st2" d="M22,12.2c0.8-1,1.2-2.2,1.1-3.5c-1.2,0.1-2.4,0.7-3.2,1.7c-0.8,0.9-1.2,2.1-1.1,3.4
						C20.1,13.8,21.3,13.2,22,12.2z"/>
				</g>
			</g>
		</g>
		<g id="_Group_4">
			<g>
				<path class="st2" d="M35.7,14.7V9.6h-1.9V8.7h4.7v0.8h-1.9v5.1H35.7z"/>
				<path class="st2" d="M42.8,13.5c-0.2,0.8-1.1,1.4-2,1.3c-1.1,0-2.1-0.9-2.1-2c0-0.1,0-0.2,0-0.3c-0.2-1.1,0.6-2.2,1.8-2.3
					c0.1,0,0.2,0,0.3,0c1.3,0,2,0.9,2,2.3v0.3h-3.2v0c-0.1,0.7,0.4,1.2,1.1,1.3c0,0,0.1,0,0.1,0c0.4,0.1,0.9-0.2,1.1-0.5L42.8,13.5z
					 M39.6,12h2.3c0-0.6-0.4-1.1-1-1.2c0,0-0.1,0-0.1,0C40.2,10.9,39.6,11.4,39.6,12C39.6,12,39.6,12,39.6,12L39.6,12z M40.3,9.4
					l1-1.4h1l-1.2,1.4H40.3z"/>
				<path class="st2" d="M44.1,8.4h0.9v6.3h-0.9V8.4z"/>
				<path class="st2" d="M50.2,13.5c-0.2,0.8-1.1,1.4-2,1.3c-1.1,0-2.1-0.9-2.1-2c0-0.1,0-0.2,0-0.3c-0.2-1.1,0.6-2.2,1.8-2.3
					c0.1,0,0.2,0,0.3,0c1.3,0,2,0.9,2,2.3v0.3h-3.2v0C47,13.4,47.5,14,48.2,14c0,0,0.1,0,0.1,0c0.4,0.1,0.9-0.2,1.1-0.5L50.2,13.5z
					 M47.1,12h2.3c0-0.6-0.4-1.1-1-1.2c0,0-0.1,0-0.1,0C47.6,10.9,47.1,11.4,47.1,12C47.1,12,47.1,12,47.1,12z M47.7,9.4l1-1.4h1
					l-1.2,1.4H47.7z"/>
				<path class="st2" d="M54.4,11.7c-0.1-0.5-0.6-0.8-1.1-0.8c-0.7,0-1.2,0.6-1.2,1.5c0,1,0.5,1.6,1.2,1.6c0.5,0.1,0.9-0.3,1.1-0.7
					h0.9c-0.1,0.9-1,1.6-1.9,1.5c-1.1,0-2.1-0.9-2.1-2c0-0.1,0-0.2,0-0.4c-0.2-1.1,0.6-2.2,1.8-2.3c0.1,0,0.2,0,0.3,0
					c1-0.1,1.8,0.6,1.9,1.6L54.4,11.7z"/>
				<path class="st2" d="M56.4,8.4h0.9v2.5h0.1c0.2-0.5,0.8-0.9,1.4-0.8c0.8,0,1.5,0.6,1.6,1.4c0,0.1,0,0.2,0,0.3v2.9h-0.9V12
					c0-0.7-0.3-1.1-1-1.1c-0.6,0-1.1,0.4-1.1,1c0,0.1,0,0.1,0,0.2v2.6h-0.9L56.4,8.4z"/>
				<path class="st2" d="M61.4,13.4c0-0.8,0.6-1.3,1.7-1.3l1.2-0.1v-0.4c0-0.5-0.3-0.7-0.9-0.7c-0.5,0-0.8,0.2-0.9,0.5h-0.9
					c0.1-0.8,0.8-1.3,1.8-1.3c1.1,0,1.8,0.6,1.8,1.5v3.1h-0.9v-0.6h-0.1c-0.3,0.5-0.8,0.7-1.4,0.7c-0.7,0.1-1.4-0.5-1.5-1.2
					C61.4,13.5,61.4,13.5,61.4,13.4z M64.3,13v-0.4l-1.1,0.1c-0.6,0-0.9,0.3-0.9,0.6c0,0.4,0.4,0.6,0.8,0.6
					C63.8,14.1,64.3,13.7,64.3,13C64.3,13.1,64.3,13.1,64.3,13L64.3,13z"/>
				<path class="st2" d="M66.6,10.2h0.9v0.7h0.1c0.2-0.5,0.7-0.8,1.2-0.8c0.1,0,0.3,0,0.4,0V11C69,11,68.8,11,68.6,11
					c-0.6-0.1-1.1,0.4-1.1,1c0,0,0,0.1,0,0.1v2.7h-0.9L66.6,10.2z"/>
				<path class="st2" d="M70,15.2h0.9c0.1,0.3,0.5,0.5,1.1,0.5c0.7,0,1.2-0.4,1.2-0.9v-0.9H73c-0.3,0.5-0.8,0.8-1.4,0.8
					c-1.1,0-1.9-0.9-1.9-2.2c0-1.4,0.7-2.3,1.9-2.3c0.6,0,1.1,0.3,1.4,0.8h0.1v-0.7H74v4.5c0,1-0.8,1.7-2.1,1.7
					C70.8,16.4,70.1,15.9,70,15.2z M73.1,12.4c0-0.9-0.5-1.5-1.2-1.5c-0.8,0-1.2,0.6-1.2,1.5c0,0.9,0.4,1.5,1.2,1.5
					C72.7,13.9,73.1,13.3,73.1,12.4L73.1,12.4z"/>
				<path class="st2" d="M79.2,13.5c-0.2,0.8-1.1,1.4-2,1.3c-1.1,0-2.1-0.9-2.1-2c0-0.1,0-0.2,0-0.3c-0.2-1.1,0.6-2.2,1.8-2.3
					c0.1,0,0.2,0,0.3,0c1.3,0,2,0.9,2,2.3v0.3h-3.2v0C76,13.4,76.5,14,77.2,14c0,0,0.1,0,0.1,0c0.4,0.1,0.9-0.2,1.1-0.5L79.2,13.5z
					 M76.1,12h2.3c0-0.6-0.4-1.1-1-1.2c0,0-0.1,0-0.1,0C76.6,10.9,76.1,11.4,76.1,12C76.1,12,76.1,12,76.1,12L76.1,12z"/>
				<path class="st2" d="M80.5,10.2h0.9v0.7h0.1c0.2-0.5,0.7-0.8,1.2-0.8c0.1,0,0.3,0,0.4,0V11c-0.2,0-0.3-0.1-0.5-0.1
					c-0.6-0.1-1.1,0.4-1.1,1c0,0,0,0.1,0,0.1v2.7h-0.9V10.2z"/>
				<path class="st2" d="M86.2,12.4c0-1.4,0.7-2.3,1.9-2.3c0.6,0,1.1,0.3,1.4,0.8h0.1V8.4h0.9v6.3h-0.9V14h-0.1
					c-0.3,0.5-0.8,0.8-1.4,0.8C86.9,14.8,86.2,13.9,86.2,12.4z M87.1,12.4c0,1,0.5,1.5,1.2,1.5c0.7,0,1.2-0.6,1.2-1.5
					c0-0.9-0.5-1.5-1.2-1.5C87.6,10.9,87.1,11.5,87.1,12.4L87.1,12.4z"/>
				<path class="st2" d="M91.6,13.4c0-0.8,0.6-1.3,1.7-1.3l1.2-0.1v-0.4c0-0.5-0.3-0.7-0.9-0.7c-0.5,0-0.8,0.2-0.9,0.5h-0.9
					c0.1-0.8,0.8-1.3,1.8-1.3c1.1,0,1.8,0.6,1.8,1.5v3.1h-0.9v-0.6h-0.1c-0.3,0.5-0.8,0.7-1.4,0.7c-0.7,0.1-1.4-0.5-1.5-1.2
					C91.6,13.5,91.6,13.5,91.6,13.4z M94.5,13v-0.4l-1.1,0.1c-0.6,0-0.9,0.3-0.9,0.6c0,0.4,0.4,0.6,0.8,0.6
					C93.9,14.1,94.4,13.7,94.5,13C94.5,13.1,94.5,13.1,94.5,13L94.5,13z"/>
				<path class="st2" d="M96.8,10.2h0.9v0.7h0.1c0.2-0.5,0.8-0.8,1.3-0.8c0.8-0.1,1.5,0.5,1.6,1.4c0,0.1,0,0.2,0,0.3v2.9h-0.9V12
					c0-0.7-0.3-1.1-1-1.1c-0.6,0-1.1,0.4-1.1,1c0,0.1,0,0.1,0,0.2v2.6h-0.9V10.2z"/>
				<path class="st2" d="M103.6,10.1c1,0,1.7,0.5,1.8,1.3h-0.9c-0.1-0.3-0.4-0.5-0.9-0.5c-0.5,0-0.9,0.2-0.9,0.6
					c0,0.3,0.2,0.4,0.7,0.6l0.7,0.2c0.9,0.2,1.3,0.6,1.3,1.2c0,0.8-0.8,1.4-1.9,1.4c-1.1,0-1.8-0.5-1.8-1.3h0.9
					c0.2,0.4,0.6,0.6,1,0.6c0.6,0,0.9-0.2,0.9-0.6c0-0.3-0.2-0.4-0.7-0.5l-0.8-0.2c-0.9-0.2-1.3-0.6-1.3-1.3
					C101.9,10.7,102.6,10.1,103.6,10.1z"/>
			</g>
		</g>
	</g>
	<g>
		<path class="st2" d="M35.2,18.1h1.9v12.4h-1.9V18.1z"/>
		<path class="st2" d="M39.3,22.6l1-4.5h1.8l-1.2,4.5H39.3z"/>
		<path class="st2" d="M49.1,27.1h-4.7l-1.1,3.4h-2l4.5-12.4h2.1l4.5,12.4h-2L49.1,27.1z M44.9,25.6h3.8l-1.8-5.4h-0.1L44.9,25.6z"
			/>
		<path class="st2" d="M62,26c0,2.8-1.5,4.6-3.8,4.6c-1.2,0.1-2.3-0.6-2.8-1.6h0v4.5h-1.9v-12h1.8v1.5h0c0.6-1,1.7-1.6,2.9-1.6
			C60.5,21.3,62,23.2,62,26z M60.1,26c0-1.8-0.9-3-2.4-3c-1.4,0-2.4,1.2-2.4,3c0,1.8,1,3,2.4,3C59.1,29,60.1,27.8,60.1,26z"/>
		<path class="st2" d="M72,26c0,2.8-1.5,4.6-3.8,4.6C67,30.6,65.9,30,65.3,29h0v4.5h-1.9v-12h1.8v1.5h0c0.6-1,1.7-1.6,2.9-1.6
			C70.5,21.3,72,23.2,72,26z M70.1,26c0-1.8-0.9-3-2.4-3c-1.4,0-2.4,1.2-2.4,3c0,1.8,1,3,2.4,3C69.1,29,70.1,27.8,70.1,26z"/>
		<path class="st2" d="M78.6,27c0.1,1.2,1.3,2,3,2c1.6,0,2.7-0.8,2.7-1.9c0-1-0.7-1.5-2.3-1.9l-1.6-0.4C78,24.3,77,23.2,77,21.5
			c0-2.1,1.9-3.6,4.5-3.6c2.6,0,4.4,1.5,4.5,3.6h-1.9c-0.1-1.2-1.1-2-2.6-2s-2.5,0.8-2.5,1.9c0,0.9,0.7,1.4,2.3,1.8l1.4,0.3
			c2.5,0.6,3.6,1.6,3.6,3.4c0,2.3-1.9,3.8-4.8,3.8c-2.8,0-4.6-1.4-4.7-3.7L78.6,27z"/>
		<path class="st2" d="M90.2,19.3v2.1h1.7v1.5h-1.7v5c0,0.8,0.3,1.1,1.1,1.1c0.2,0,0.4,0,0.6,0v1.5c-0.3,0.1-0.7,0.1-1,0.1
			c-1.8,0-2.5-0.7-2.5-2.4v-5.2H87v-1.5h1.3v-2.1H90.2z"/>
		<path class="st2" d="M92.9,26c0-2.8,1.7-4.6,4.3-4.6c2.6,0,4.3,1.8,4.3,4.6c0,2.9-1.7,4.6-4.3,4.6C94.6,30.6,92.9,28.8,92.9,26z
			 M99.6,26c0-2-0.9-3.1-2.4-3.1S94.8,24,94.8,26c0,2,0.9,3.1,2.4,3.1S99.6,27.9,99.6,26L99.6,26z"/>
		<path class="st2" d="M103,21.4h1.8V23h0c0.2-1,1.2-1.7,2.2-1.6c0.2,0,0.4,0,0.6,0.1v1.7c-0.3-0.1-0.6-0.1-0.8-0.1
			c-1,0-1.9,0.8-1.9,1.8c0,0.1,0,0.2,0,0.3v5.4H103L103,21.4z"/>
		<path class="st2" d="M116.2,27.8c-0.2,1.6-1.9,2.8-3.9,2.8c-2.6,0-4.3-1.8-4.3-4.6c0-2.8,1.6-4.7,4.2-4.7c2.5,0,4.1,1.7,4.1,4.5
			v0.6h-6.4v0.1c-0.1,1.3,0.8,2.4,2.1,2.6c0.1,0,0.2,0,0.3,0c0.9,0.1,1.8-0.4,2.1-1.3L116.2,27.8z M109.9,25.1h4.5
			c0.1-1.2-0.9-2.2-2.1-2.3c-0.1,0-0.1,0-0.2,0C111,22.8,110,23.8,109.9,25.1C109.9,25.1,109.9,25.1,109.9,25.1z"/>
	</g>
</g>
</svg>
