<?xml version="1.0" encoding="utf-8"?>
<!-- Generator: Adobe Illustrator 27.9.3, SVG Export Plug-In . SVG Version: 9.03 Build 53313)  -->
<svg version="1.1" id="Layer_1" xmlns="http://www.w3.org/2000/svg" xmlns:xlink="http://www.w3.org/1999/xlink" x="0px" y="0px"
	 viewBox="0 0 800 800" style="enable-background:new 0 0 800 800;" xml:space="preserve">
<style type="text/css">
	.st0{fill:#F2E5CA;}
	.st1{fill:#D6AB7F;}
	.st2{fill:#6A576D;}
</style>
<path class="st0" d="M754.7,379.9C745.1,208.4,609.2,65.5,438.4,47.6c-48.9-5.4-92.5-5.8-109,19.4c-15.2,20.3-11.9,54.6,19.6,71.6
	c54.7,24.4,88.5,81.2,84.2,140.9c-5.1,71.8-65.6,129.9-137.7,132.3c-52.2,1.6-99.5-24.1-126.5-68.3c-8.6-14-21.9-22.8-36.8-24.4
	c-70.1-2.5-94.9,51.8-85.8,105.5c12.1,181.4,164.2,326.7,346.2,330.6C612.6,753.9,764.3,585.8,754.7,379.9z"/>
<path class="st1" d="M710.9,382.4C680.5,103.7,418,75.3,367,91.7c-2.4,2.1-2.1,4.1,0.7,6.2c71.7,32,104.2,106.2,110.4,184.6
	c-7.2,127.7-128.5,174.2-180.7,173.5c-37.2,4.1-119.1-16.7-165.9-89.3c-25.7-16.9-39.3,10.4-41.1,27.7
	C78.5,503.1,184,710.8,393.9,710.8c2.4,0,128.5,9.4,232.4-97.2C685.6,551,715.5,469,710.9,382.4z"/>
<path class="st2" d="M798.9,377.4C788.1,184.5,635.2,23.6,443.2,3.5c-71-7.8-118.3-3.8-150,37.8C262.8,80.5,271.5,152.5,331,179
	c37.7,16.9,61.1,55.9,58.1,97.2c-3.6,49.4-45.2,89.5-95,91.2c0,0-56.3,3.4-87.2-46.9c-15.9-25.8-41.1-44.3-69.8-45.3
	C8.8,270-7.2,388.5,2.3,427.6c13.6,204.2,184.6,367.5,389.5,372.1C659.9,801.9,814.4,575.1,798.9,377.4z M392.6,755.3
	c-182.1-4-334-149.2-346.2-330.6c-9-53.5,15.8-108.1,85.8-105.5c14.8,1.6,28.2,10.5,36.8,24.4c27.1,44.1,74.3,69.8,126.5,68.3
	c72.1-2.4,132.6-60.5,137.7-132.3c4.2-59.8-29.6-116.4-84.2-140.9c-31.4-17-34.7-51.1-19.6-71.6c16.6-25.2,60.4-24.8,109-19.4
	c170.6,17.9,306.6,160.8,316.3,332.3C764.3,585.8,612.6,753.9,392.6,755.3z"/>
<path class="st0" d="M569.9,267.1c16.1,0,29.1-13,29.1-29.1s-13-29.1-29.1-29.1s-29.1,13-29.1,29.1S553.8,267.1,569.9,267.1z"/>
<path class="st0" d="M586.4,505.4c16.1,0,29.1-13,29.1-29.1s-13-29.1-29.1-29.1s-29.1,13-29.1,29.1S570.3,505.4,586.4,505.4z"/>
<path class="st0" d="M440.9,613.6c0-16.1-13-29.1-29.1-29.1c-16.1,0-29.1,13-29.1,29.1s13,29.1,29.1,29.1
	C427.9,642.7,440.9,629.6,440.9,613.6z"/>
<path class="st0" d="M233,527.5c0-16.1-13-29.1-29.1-29.1s-29.1,13-29.1,29.1c0,16.1,13,29.1,29.1,29.1S233,543.7,233,527.5z"/>
<g>
	<path class="st2" d="M569.9,311.5c40.6,0,73.5-33.1,73.5-73.5s-33.1-73.5-73.5-73.5c-40.5,0-73.5,33.1-73.5,73.5
		S529.5,311.5,569.9,311.5z M569.9,208.9c16.1,0,29.1,13,29.1,29.1s-13,29.1-29.1,29.1s-29.1-13-29.1-29.1S553.8,208.9,569.9,208.9z
		"/>
	<path class="st2" d="M586.4,402.6c-40.6,0-73.5,33.1-73.5,73.5s33.1,73.5,73.5,73.5c40.6,0,73.5-33.1,73.5-73.5
		C659.9,435.7,627.1,402.6,586.4,402.6z M586.4,505.5c-16.1,0-29.1-13-29.1-29.1c0-16.1,13-29.1,29.1-29.1s29.1,13,29.1,29.1
		C615.5,492.5,602.5,505.5,586.4,505.5z"/>
	<path class="st2" d="M411.5,540c-40.6,0-73.5,33.1-73.5,73.5c0,40.6,33.1,73.5,73.5,73.5s73.5-33.1,73.5-73.5
		C485.2,572.8,452.3,540,411.5,540z M411.5,642.7c-16.1,0-29.1-13-29.1-29.1s13-29.1,29.1-29.1c16.1,0,29.1,13,29.1,29.1
		C440.8,629.6,427.6,642.7,411.5,642.7z"/>
	<path class="st2" d="M203.9,454.1c-40.6,0-73.5,33.1-73.5,73.5c0,40.6,33.1,73.5,73.5,73.5s73.5-33.1,73.5-73.5
		C277.4,487.1,244.3,454.1,203.9,454.1z M203.9,556.9c-16.1,0-29.1-13-29.1-29.1c0-16.1,13-29.1,29.1-29.1s29.1,13,29.1,29.1
		C233,543.9,219.9,556.9,203.9,556.9z"/>
</g>
</svg>
