<?xml version="1.0" encoding="UTF-8"?>
<svg id="Layer_1" data-name="Layer 1" xmlns="http://www.w3.org/2000/svg" version="1.1" viewBox="0 0 800 800">
  <defs>
    <style>
      .cls-1 {
        fill: #6331ff;
      }

      .cls-1, .cls-2, .cls-3 {
        stroke-width: 0px;
      }

      .cls-2 {
        fill: #d9d2ff;
      }

      .cls-3 {
        fill: #c2a9ff;
      }
    </style>
  </defs>
  <path class="cls-2" d="M754.7,379.9c-9.6-171.5-145.5-314.4-316.3-332.3-48.9-5.4-92.5-5.8-109,19.4-15.2,20.3-11.9,54.6,19.6,71.6,54.7,24.4,88.5,81.2,84.2,140.9-5.1,71.8-65.6,129.9-137.7,132.3-52.2,1.6-99.5-24.1-126.5-68.3-8.6-14-21.9-22.8-36.8-24.4-70.1-2.5-94.9,51.8-85.8,105.5,12.1,181.4,164.2,326.7,346.2,330.6,220-1.3,371.7-169.4,362.1-375.3Z"/>
  <path class="cls-3" d="M710.9,382.4C680.5,103.7,418,75.3,367,91.7c-2.4,2.1-2.1,4.1.7,6.2,71.7,32,104.2,106.2,110.4,184.6-7.2,127.7-128.5,174.2-180.7,173.5-37.2,4.1-119.1-16.7-165.9-89.3-25.7-16.9-39.3,10.4-41.1,27.7-11.9,108.7,93.6,316.4,303.5,316.4s128.5,9.4,232.4-97.2c59.3-62.6,89.2-144.6,84.6-231.2Z"/>
  <path class="cls-1" d="M798.9,377.4C788.1,184.5,635.2,23.6,443.2,3.5c-71-7.8-118.3-3.8-150,37.8-30.4,39.2-21.7,111.2,37.8,137.7,37.7,16.9,61.1,55.9,58.1,97.2-3.6,49.4-45.2,89.5-95,91.2,0,0-56.3,3.4-87.2-46.9-15.9-25.8-41.1-44.3-69.8-45.3C8.8,270-7.2,388.5,2.3,427.6c13.6,204.2,184.6,367.5,389.5,372.1,268.1,2.2,422.6-224.6,407.1-422.3ZM392.6,755.3c-182.1-4-334-149.2-346.2-330.6-9-53.5,15.8-108.1,85.8-105.5,14.8,1.6,28.2,10.5,36.8,24.4,27.1,44.1,74.3,69.8,126.5,68.3,72.1-2.4,132.6-60.5,137.7-132.3,4.2-59.8-29.6-116.4-84.2-140.9-31.4-17-34.7-51.1-19.6-71.6,16.6-25.2,60.4-24.8,109-19.4,170.6,17.9,306.6,160.8,316.3,332.3,9.6,205.8-142.1,373.9-362.1,375.3Z"/>
  <path class="cls-2" d="M569.9,267.1c16.1,0,29.1-13,29.1-29.1s-13-29.1-29.1-29.1-29.1,13-29.1,29.1,13,29.1,29.1,29.1Z"/>
  <path class="cls-2" d="M586.4,505.4c16.1,0,29.1-13,29.1-29.1s-13-29.1-29.1-29.1-29.1,13-29.1,29.1,13,29.1,29.1,29.1Z"/>
  <path class="cls-2" d="M440.9,613.6c0-16.1-13-29.1-29.1-29.1s-29.1,13-29.1,29.1,13,29.1,29.1,29.1c16.1,0,29.1-13.1,29.1-29.1Z"/>
  <path class="cls-2" d="M233,527.5c0-16.1-13-29.1-29.1-29.1s-29.1,13-29.1,29.1,13,29.1,29.1,29.1,29.1-12.9,29.1-29.1Z"/>
  <g>
    <path class="cls-1" d="M569.9,311.5c40.6,0,73.5-33.1,73.5-73.5s-33.1-73.5-73.5-73.5-73.5,33.1-73.5,73.5,33.1,73.5,73.5,73.5ZM569.9,208.9c16.1,0,29.1,13,29.1,29.1s-13,29.1-29.1,29.1-29.1-13-29.1-29.1,13-29.1,29.1-29.1Z"/>
    <path class="cls-1" d="M586.4,402.6c-40.6,0-73.5,33.1-73.5,73.5s33.1,73.5,73.5,73.5,73.5-33.1,73.5-73.5-32.8-73.5-73.5-73.5ZM586.4,505.5c-16.1,0-29.1-13-29.1-29.1s13-29.1,29.1-29.1,29.1,13,29.1,29.1-13,29.1-29.1,29.1Z"/>
    <path class="cls-1" d="M411.5,540c-40.6,0-73.5,33.1-73.5,73.5s33.1,73.5,73.5,73.5,73.5-33.1,73.5-73.5c.2-40.7-32.7-73.5-73.5-73.5ZM411.5,642.7c-16.1,0-29.1-13-29.1-29.1s13-29.1,29.1-29.1,29.1,13,29.1,29.1c.2,16-13,29.1-29.1,29.1Z"/>
    <path class="cls-1" d="M203.9,454.1c-40.6,0-73.5,33.1-73.5,73.5s33.1,73.5,73.5,73.5,73.5-33.1,73.5-73.5-33.1-73.5-73.5-73.5ZM203.9,556.9c-16.1,0-29.1-13-29.1-29.1s13-29.1,29.1-29.1,29.1,13,29.1,29.1-13.1,29.1-29.1,29.1Z"/>
  </g>
</svg>