<?xml version="1.0" encoding="utf-8"?>
<!-- Generator: Adobe Illustrator 27.9.3, SVG Export Plug-In . SVG Version: 9.03 Build 53313)  -->
<svg version="1.1" id="Layer_1" xmlns="http://www.w3.org/2000/svg" xmlns:xlink="http://www.w3.org/1999/xlink" x="0px" y="0px"
	 viewBox="0 0 646 191.4" style="enable-background:new 0 0 646 191.4;" xml:space="preserve">
<style type="text/css">
	.st0{clip-path:url(#SVGID_00000127722533383483072250000018426245889354123671_);}
	.st1{clip-path:url(#SVGID_00000081646508515952356590000015433150154821178513_);}
	.st2{fill:url(#SVGID_00000091013430413512862000000013409202650059294861_);}
	.st3{fill:#AFACAB;}
	.st4{fill:#FFFFFF;}
	.st5{fill:#E43629;}
	.st6{fill:#F9BD00;}
	.st7{fill:#587DBE;}
	.st8{fill:#30A043;}
</style>
<g>
	<defs>
		<rect id="SVGID_1_" width="646" height="191.4"/>
	</defs>
	<clipPath id="SVGID_00000015351028298637751350000018165912768824783517_">
		<use xlink:href="#SVGID_1_"  style="overflow:visible;"/>
	</clipPath>
	<g style="clip-path:url(#SVGID_00000015351028298637751350000018165912768824783517_);">
		<g>
			<defs>
				<rect id="SVGID_00000137817612562528534750000005791054309180615854_" width="646" height="191.4"/>
			</defs>
			<clipPath id="SVGID_00000179612368583244826030000007847021538532363956_">
				<use xlink:href="#SVGID_00000137817612562528534750000005791054309180615854_"  style="overflow:visible;"/>
			</clipPath>
			<g style="clip-path:url(#SVGID_00000179612368583244826030000007847021538532363956_);">
				
					<linearGradient id="SVGID_00000062172617518645552100000006835349372737464737_" gradientUnits="userSpaceOnUse" x1="0" y1="98.29" x2="646.01" y2="98.29" gradientTransform="matrix(1 0 0 -1 0 194)">
					<stop  offset="0" style="stop-color:#281DFF"/>
					<stop  offset="1" style="stop-color:#C231FF"/>
				</linearGradient>
				<path style="fill:url(#SVGID_00000062172617518645552100000006835349372737464737_);" d="M622.1,191.4H23.9
					C10.8,191.4,0,180.6,0,167.5V23.9C0,10.8,10.8,0,23.9,0h598.2C635.2,0,646,10.8,646,23.9v143.6
					C646,180.6,635.2,191.4,622.1,191.4"/>
				<path class="st3" d="M622.1,3.8c11.1,0,20.1,9,20.1,20.1v143.6c0,11.1-9,20.1-20.1,20.1H23.9c-11.1,0-20.1-9-20.1-20.1V23.9
					c0-11.1,9-20.1,20.1-20.1H622.1L622.1,3.8z M622.1,0H23.9C10.8,0,0,10.8,0,23.9v143.6c0,13.2,10.8,23.9,23.9,23.9h598.2
					c13.2,0,23.9-10.8,23.9-23.9V23.9C646,10.8,635.2,0,622.1,0"/>
				<path class="st4" d="M326,104.1c-11.2,0-20.4,8.6-20.4,20.4s9.2,20.4,20.4,20.4s20.4-8.6,20.4-20.3S337.3,104.1,326,104.1
					 M326,136.8c-6.2,0-11.5-5.1-11.5-12.3s5.3-12.3,11.5-12.3s11.5,5,11.5,12.3C337.5,131.8,332.2,136.8,326,136.8 M281.5,104.1
					c-11.2,0-20.4,8.6-20.4,20.4s9.2,20.4,20.4,20.4s20.4-8.6,20.4-20.3S292.7,104.1,281.5,104.1 M281.5,136.8
					c-6.2,0-11.5-5.1-11.5-12.3s5.3-12.3,11.5-12.3s11.5,5,11.5,12.3C293,131.8,287.6,136.8,281.5,136.8 M228.5,110.3v8.6h20.7
					c-0.6,4.9-2.2,8.4-4.7,10.9c-3,3-7.7,6.3-16,6.3c-12.7,0-22.7-10.2-22.7-23s9.9-23,22.7-23c6.9,0,11.9,2.7,15.6,6.2l6.1-6.1
					c-5.2-4.9-12-8.7-21.7-8.7c-17.4,0-32.1,14.2-32.1,31.6s14.6,31.6,32.1,31.6c9.4,0,16.5-3.1,22.1-8.9c5.7-5.7,7.5-13.7,7.5-20.2
					c0-2-0.1-3.8-0.5-5.4L228.5,110.3L228.5,110.3z M445.3,117c-1.7-4.6-6.9-12.9-17.4-12.9s-19.2,8.2-19.2,20.4
					c0,11.4,8.6,20.4,20.2,20.4c9.3,0,14.7-5.7,17-9l-6.9-4.6c-2.3,3.4-5.5,5.6-10,5.6s-7.8-2.1-9.9-6.2l27.2-11.3L445.3,117
					L445.3,117z M417.5,123.8c-0.2-7.9,6.1-11.9,10.6-11.9c3.5,0,6.6,1.8,7.6,4.3L417.5,123.8L417.5,123.8z M395.4,143.6h8.9V83.7
					h-8.9V143.6z M380.7,108.6h-0.3c-2-2.4-5.9-4.6-10.7-4.6c-10.2,0-19.5,8.9-19.5,20.4s9.3,20.3,19.5,20.3c4.9,0,8.7-2.2,10.7-4.6
					h0.3v2.9c0,7.8-4.2,11.9-10.9,11.9c-5.5,0-8.9-3.9-10.2-7.2l-7.8,3.2c2.2,5.4,8.2,12,18,12c10.5,0,19.4-6.2,19.4-21.2v-36.5
					h-8.5V108.6L380.7,108.6z M370.5,136.8c-6.2,0-11.3-5.2-11.3-12.2s5.2-12.4,11.3-12.4s10.9,5.2,10.9,12.4
					C381.4,131.7,376.6,136.8,370.5,136.8 M487.2,83.7h-21.4v59.8h8.9v-22.7h12.5c9.9,0,19.6-7.2,19.6-18.6S497.1,83.7,487.2,83.7
					 M487.4,112.6h-12.7V92.1h12.7c6.7,0,10.5,5.5,10.5,10.2S494.1,112.6,487.4,112.6 M542.6,104c-6.5,0-13.2,2.8-15.9,9.2l7.9,3.3
					c1.7-3.3,4.8-4.4,8.2-4.4c4.6,0,9.3,2.8,9.4,7.7v0.6c-1.6-0.9-5.1-2.3-9.3-2.3c-8.5,0-17.2,4.7-17.2,13.5c0,8,7,13.2,14.8,13.2
					c6,0,9.3-2.7,11.4-5.9h0.3v4.6h8.6v-22.9C560.7,109.9,552.8,104,542.6,104 M541.5,136.7c-2.9,0-7-1.5-7-5.1
					c0-4.6,5.1-6.4,9.5-6.4c3.9,0,5.8,0.8,8.2,2C551.4,132.8,546.7,136.7,541.5,136.7 M592.1,105.3l-10.2,25.9h-0.3L571,105.3h-9.6
					l15.9,36.2l-9.1,20.2h9.3l24.5-56.4H592.1L592.1,105.3z M511.7,143.5h8.9V83.7h-8.9V143.5z"/>
				<path class="st5" d="M99.1,92.9l-51,54.1c0,0,0,0,0,0c1.6,5.9,6.9,10.2,13.3,10.2c2.5,0,4.9-0.7,7-1.9l0.2-0.1l57.3-33.1
					L99.1,92.9L99.1,92.9z"/>
				<path class="st6" d="M150.7,83.7L150.7,83.7l-24.8-14.4L98,94.2l28,28l24.6-14.2c4.3-2.3,7.2-6.9,7.2-12.1
					S154.9,86.1,150.7,83.7"/>
				<path class="st7" d="M48.2,44.4c-0.3,1.1-0.5,2.3-0.5,3.5v95.6c0,1.2,0.2,2.4,0.5,3.5l52.7-52.7L48.2,44.4L48.2,44.4z"/>
				<path class="st8" d="M99.5,95.7l26.4-26.4L68.6,36.1c-2.1-1.2-4.5-2-7.1-2c-6.4,0-11.7,4.3-13.3,10.2c0,0,0,0,0,0L99.5,95.7
					L99.5,95.7z"/>
			</g>
		</g>
		<g>
			<path class="st4" d="M199.9,33h9.5c3.1,0,5.8,0.6,8.1,1.9s4.1,3,5.3,5.3c1.2,2.3,1.9,4.8,1.9,7.8s-0.6,5.5-1.9,7.8
				c-1.2,2.3-3,4-5.3,5.3s-5,1.9-8.1,1.9h-9.5V33L199.9,33z M209.4,58.5c3.4,0,6-0.9,7.9-2.8c1.9-1.9,2.8-4.5,2.8-7.8
				s-0.9-5.9-2.8-7.8c-1.9-1.9-4.5-2.8-7.9-2.8h-4.8v21.1L209.4,58.5L209.4,58.5z"/>
			<path class="st4" d="M230.6,33h4.6v29.8h-4.6V33z"/>
			<path class="st4" d="M244.8,61.3c-2-1.4-3.3-3.5-4.1-6.1l4.3-1.8c0.4,1.7,1.2,3,2.4,4.1c1.1,1.1,2.5,1.6,4.1,1.6
				c1.5,0,2.8-0.4,3.8-1.2s1.6-1.8,1.6-3.2c0-1.2-0.5-2.3-1.4-3.1c-0.9-0.8-2.5-1.6-4.8-2.4l-1.9-0.7c-2-0.7-3.7-1.7-5.1-3
				c-1.4-1.3-2-3-2-5.1c0-1.5,0.4-2.8,1.2-4.1c0.8-1.2,1.9-2.2,3.3-3c1.4-0.7,3.1-1.1,4.9-1.1c2.6,0,4.6,0.6,6.2,1.9
				c1.5,1.3,2.6,2.7,3.2,4.3l-4.1,1.8c-0.3-1-0.9-1.9-1.8-2.6c-0.9-0.7-2-1.1-3.5-1.1s-2.5,0.4-3.5,1.1c-0.9,0.7-1.4,1.6-1.4,2.8
				c0,1,0.4,1.9,1.3,2.6s2.2,1.3,3.9,1.9l1.9,0.7c2.6,0.9,4.5,2,5.9,3.5s2.1,3.3,2.1,5.7c0,1.9-0.5,3.6-1.5,4.9
				c-1,1.3-2.2,2.3-3.8,2.9c-1.5,0.6-3.1,1-4.7,1C248.9,63.5,246.7,62.8,244.8,61.3L244.8,61.3z"/>
			<path class="st4" d="M267.4,33h10.2c1.8,0,3.4,0.4,4.9,1.2s2.7,1.9,3.5,3.2c0.9,1.4,1.3,3,1.3,4.7s-0.4,3.3-1.3,4.7
				c-0.9,1.4-2,2.5-3.5,3.2c-1.5,0.8-3.1,1.2-4.9,1.2H272v11.6h-4.6V33z M277.8,46.9c1.5,0,2.8-0.5,3.7-1.4s1.4-2.1,1.4-3.3
				s-0.5-2.4-1.4-3.3c-0.9-1-2.2-1.4-3.7-1.4H272v9.6L277.8,46.9L277.8,46.9z"/>
			<path class="st4" d="M298.9,61.4c-2.4-1.4-4.2-3.3-5.6-5.6s-2-5-2-7.8s0.7-5.5,2-7.8c1.4-2.4,3.2-4.2,5.6-5.6s5-2.1,7.9-2.1
				s5.5,0.7,7.9,2.1c2.3,1.4,4.2,3.3,5.5,5.6s2,5,2,7.8s-0.7,5.5-2,7.8c-1.4,2.4-3.2,4.2-5.5,5.6s-5,2.1-7.9,2.1
				S301.2,62.8,298.9,61.4z M312.2,57.8c1.6-1,3-2.3,3.9-4c1-1.7,1.4-3.6,1.4-5.8s-0.5-4.1-1.4-5.8c-1-1.7-2.3-3-3.9-4
				s-3.5-1.4-5.5-1.4s-3.8,0.5-5.5,1.4s-3,2.3-3.9,4c-1,1.7-1.4,3.6-1.4,5.8s0.5,4.1,1.4,5.8c1,1.7,2.3,3,3.9,4s3.5,1.4,5.5,1.4
				S310.5,58.7,312.2,57.8z"/>
			<path class="st4" d="M328,33h5.4l13.5,21.9h0.2l-0.2-5.8V33h4.5v29.8h-4.8l-14.1-23h-0.2l0.2,5.8v17.3H328V33L328,33z"/>
			<path class="st4" d="M359,33h4.6v29.8H359V33z"/>
			<path class="st4" d="M371.1,33h11.2c1.6,0,3,0.3,4.4,1c1.4,0.7,2.4,1.6,3.2,2.8s1.2,2.5,1.2,4s-0.4,2.8-1.1,3.8
				c-0.7,1.1-1.7,1.9-2.9,2.5v0.2c1.5,0.5,2.8,1.4,3.7,2.6c0.9,1.2,1.4,2.7,1.4,4.3s-0.4,3.1-1.3,4.3c-0.9,1.3-2,2.2-3.4,3
				s-3,1.1-4.7,1.1h-11.7L371.1,33L371.1,33z M382,45.6c1.4,0,2.5-0.4,3.3-1.3c0.8-0.8,1.2-1.8,1.2-2.9s-0.4-2.1-1.2-2.9
				s-1.9-1.2-3.2-1.2h-6.5v8.3L382,45.6L382,45.6z M382.8,58.6c1.4,0,2.6-0.4,3.5-1.3c0.9-0.9,1.3-1.9,1.3-3.1s-0.5-2.3-1.4-3.2
				c-0.9-0.9-2.1-1.3-3.6-1.3h-6.9v9L382.8,58.6L382.8,58.6z"/>
			<path class="st4" d="M398.1,33h4.6v25.5h12.8v4.3h-17.4V33z"/>
			<path class="st4" d="M420.4,33h18.1v4.3H425v8.4h12.2v4.3H425v8.4h13.5v4.3h-18.1V33z"/>
			<path class="st4" d="M455.9,61.3c-2-1.4-3.3-3.5-4.1-6.1l4.3-1.8c0.4,1.7,1.2,3,2.4,4.1c1.1,1.1,2.5,1.6,4.1,1.6
				c1.5,0,2.8-0.4,3.8-1.2s1.6-1.8,1.6-3.2c0-1.2-0.5-2.3-1.4-3.1c-0.9-0.8-2.5-1.6-4.8-2.4l-1.9-0.7c-2-0.7-3.7-1.7-5.1-3
				s-2-3-2-5.1c0-1.5,0.4-2.8,1.2-4.1s1.9-2.2,3.3-3c1.4-0.7,3-1.1,4.9-1.1c2.6,0,4.6,0.6,6.2,1.9c1.5,1.3,2.6,2.7,3.2,4.3l-4.1,1.8
				c-0.3-1-0.9-1.9-1.8-2.6c-0.9-0.7-2-1.1-3.5-1.1s-2.5,0.4-3.5,1.1c-0.9,0.7-1.4,1.6-1.4,2.8c0,1,0.4,1.9,1.3,2.6
				c0.9,0.7,2.2,1.3,3.9,1.9l1.9,0.7c2.5,0.9,4.5,2,5.9,3.5s2.1,3.3,2.1,5.7c0,1.9-0.5,3.6-1.5,4.9c-1,1.3-2.2,2.3-3.8,2.9
				s-3.1,1-4.7,1C460,63.5,457.8,62.8,455.9,61.3L455.9,61.3z"/>
			<path class="st4" d="M483.2,62c-1.7-1-3-2.4-4-4.2c-0.9-1.8-1.4-4-1.4-6.4V33h4.5v18.6c0,2.2,0.6,4.1,1.8,5.5
				c1.2,1.4,2.8,2.1,5,2.1s3.8-0.7,5-2.1c1.2-1.4,1.8-3.2,1.8-5.5V33h4.5v18.4c0,2.4-0.5,4.5-1.4,6.3c-0.9,1.8-2.2,3.2-3.9,4.3
				c-1.7,1-3.7,1.5-6,1.5S484.9,63,483.2,62L483.2,62z"/>
			<path class="st4" d="M507.5,33H518c1.8,0,3.4,0.4,4.9,1.2s2.6,1.9,3.5,3.2c0.8,1.4,1.3,3,1.3,4.7c0,2-0.7,3.8-1.9,5.3
				s-2.9,2.6-4.8,3.1l0,0.2l8.2,11.8v0.2h-5.3l-8-11.7h-3.6v11.7h-4.6L507.5,33L507.5,33z M517.8,46.9c1.4,0,2.7-0.5,3.6-1.4
				c1-0.9,1.5-2.1,1.5-3.5c0-1.3-0.5-2.4-1.3-3.3c-0.9-1-2.1-1.4-3.6-1.4h-5.9v9.6L517.8,46.9L517.8,46.9z"/>
		</g>
	</g>
</g>
</svg>
