<?xml version="1.0" encoding="utf-8"?>
<!-- Generator: Adobe Illustrator 27.9.3, SVG Export Plug-In . SVG Version: 9.03 Build 53313)  -->
<svg version="1.1" id="Calque_1" xmlns="http://www.w3.org/2000/svg" xmlns:xlink="http://www.w3.org/1999/xlink" x="0px" y="0px"
	 viewBox="0 0 800 800" style="enable-background:new 0 0 800 800;" xml:space="preserve">
<style type="text/css">
	.st0{fill-rule:evenodd;clip-rule:evenodd;fill:url(#SVGID_1_);}
	.st1{fill:url(#SVGID_00000017497020109716972320000001094434292389455788_);}
	.st2{fill-rule:evenodd;clip-rule:evenodd;fill:url(#SVGID_00000018946978662586203580000011845326132949129094_);}
</style>
<linearGradient id="SVGID_1_" gradientUnits="userSpaceOnUse" x1="200" y1="400" x2="600" y2="400">
	<stop  offset="0" style="stop-color:#281DFF"/>
	<stop  offset="1" style="stop-color:#C231FF"/>
</linearGradient>
<path class="st0" d="M400,600c110.5,0,200-89.5,200-200c0-110.5-89.5-200-200-200c-110.5,0-200,89.5-200,200
	C200,510.5,289.5,600,400,600z M400,533.3c73.6,0,133.3-59.7,133.3-133.3c0-73.6-59.7-133.3-133.3-133.3
	c-73.6,0-133.3,59.7-133.3,133.3C266.7,473.6,326.4,533.3,400,533.3z"/>
<linearGradient id="SVGID_00000129926661469113240170000005918896375540640645_" gradientUnits="userSpaceOnUse" x1="566.6666" y1="200" x2="633.3333" y2="200">
	<stop  offset="0" style="stop-color:#281DFF"/>
	<stop  offset="1" style="stop-color:#C231FF"/>
</linearGradient>
<path style="fill:url(#SVGID_00000129926661469113240170000005918896375540640645_);" d="M600,166.7c-18.4,0-33.3,14.9-33.3,33.3
	s14.9,33.3,33.3,33.3c18.4,0,33.3-14.9,33.3-33.3S618.4,166.7,600,166.7z"/>
<linearGradient id="SVGID_00000019644478230304963820000013579613616892173987_" gradientUnits="userSpaceOnUse" x1="33.3333" y1="400" x2="766.6666" y2="400">
	<stop  offset="0" style="stop-color:#281DFF"/>
	<stop  offset="1" style="stop-color:#C231FF"/>
</linearGradient>
<path style="fill-rule:evenodd;clip-rule:evenodd;fill:url(#SVGID_00000019644478230304963820000013579613616892173987_);" d="
	M55.1,142.5c-21.8,42.8-21.8,98.8-21.8,210.8v93.3c0,112,0,168,21.8,210.8c19.2,37.6,49.8,68.2,87.4,87.4
	c42.8,21.8,98.8,21.8,210.8,21.8h93.3c112,0,168,0,210.8-21.8c37.6-19.2,68.2-49.8,87.4-87.4c21.8-42.8,21.8-98.8,21.8-210.8v-93.3
	c0-112,0-168-21.8-210.8c-19.2-37.6-49.8-68.2-87.4-87.4c-42.8-21.8-98.8-21.8-210.8-21.8h-93.3c-112,0-168,0-210.8,21.8
	C104.9,74.3,74.3,104.9,55.1,142.5z M446.7,100h-93.3c-57.1,0-95.9,0.1-125.9,2.5c-29.2,2.4-44.2,6.7-54.6,12
	c-25.1,12.8-45.5,33.2-58.3,58.3c-5.3,10.4-9.6,25.4-12,54.6c-2.5,30-2.5,68.8-2.5,125.9v93.3c0,57.1,0.1,95.9,2.5,125.9
	c2.4,29.2,6.7,44.2,12,54.6c12.8,25.1,33.2,45.5,58.3,58.3c10.4,5.3,25.4,9.6,54.6,12c30,2.5,68.8,2.5,125.9,2.5h93.3
	c57.1,0,95.9-0.1,125.9-2.5c29.2-2.4,44.2-6.7,54.6-12c25.1-12.8,45.5-33.2,58.3-58.3c5.3-10.4,9.6-25.4,12-54.6
	c2.5-30,2.5-68.8,2.5-125.9v-93.3c0-57.1-0.1-95.9-2.5-125.9c-2.4-29.2-6.7-44.2-12-54.6c-12.8-25.1-33.2-45.5-58.3-58.3
	c-10.4-5.3-25.4-9.6-54.6-12C542.6,100.1,503.8,100,446.7,100z"/>
</svg>
