<?xml version="1.0" encoding="utf-8"?>
<!-- Generator: Adobe Illustrator 27.9.3, SVG Export Plug-In . SVG Version: 9.03 Build 53313)  -->
<svg version="1.1" id="Calque_2_00000172404192666207785020000010006717657598574731_"
	 xmlns="http://www.w3.org/2000/svg" xmlns:xlink="http://www.w3.org/1999/xlink" x="0px" y="0px" viewBox="0 0 360.8 126.9"
	 style="enable-background:new 0 0 360.8 126.9;" xml:space="preserve">
<style type="text/css">
	.st0{fill:url(#SVGID_1_);}
	.st1{fill:url(#SVGID_00000033347101726618030560000000480384946745218689_);}
	.st2{fill:none;stroke:#F6F6F6;stroke-width:1.78;stroke-miterlimit:10;}
</style>
<g id="Calque_1-2">
	
		<linearGradient id="SVGID_1_" gradientUnits="userSpaceOnUse" x1="0" y1="61.5" x2="104.6" y2="61.5" gradientTransform="matrix(1 0 0 -1 0 128)">
		<stop  offset="0" style="stop-color:#281DFF"/>
		<stop  offset="1" style="stop-color:#C231FF"/>
	</linearGradient>
	<ellipse class="st0" cx="52.3" cy="66.5" rx="52.3" ry="51.4"/>
	<g>
		<g>
			<path d="M177,37h13.4c-2.6,16.7-16.8,23.4-31.4,23.4c-16.2,0-31.9-8.2-31.9-29.3s15.7-29.2,31.9-29.2c14.6,0,28.8,6.7,31.4,23.4
				H177c-1.7-7.3-6.4-13.6-18-13.6c-13.5,0-18.7,8.6-18.7,19.4s5.2,19.5,18.7,19.5C170.6,50.6,175.3,44.2,177,37L177,37z"/>
			<path d="M209.8,0v59.2h-12.2V0H209.8z"/>
			<path d="M228,41c1,5.8,5.1,11,13.9,11c6.5,0,10.7-2.9,12.4-6.5H265c-2.8,10.7-12.5,14.9-23.1,14.9c-12.2,0-24.9-6.7-24.9-22.5
				s12.6-22.5,24.9-22.5s25.3,7.6,24.1,25.7L228,41L228,41z M228.4,33h26.4c-1.3-5.1-4.9-9.3-12.9-9.3S230,27.8,228.4,33z"/>
			<path d="M316.7,31.4v27.7h-12.2v-5.7c-1.8,2.8-8,6.9-17.6,6.9c-10,0-16.9-4.2-16.9-12.6c0-9,4.6-16.2,34.5-14.3v-2
				c0-4.5-2-7.8-10.8-7.8c-7.4,0-9.7,2.2-10.3,5.1H272c1.4-9.5,10-13.5,21.7-13.5S316.7,18.9,316.7,31.4L316.7,31.4z M304.5,40.7
				c-16.2-0.9-22.2,0.6-22.2,6.7c0,4,3,5.6,8.3,5.6c6.6,0,11.7-2.6,14-6.3L304.5,40.7L304.5,40.7z"/>
			<path d="M360.8,16v11.2h-0.4c-1.5-0.6-4.4-1.4-8.1-1.4c-10.1,0-13.8,6.3-13.8,13v20.3h-12.2V16.4h12.2v7.9c1.8-3,6.8-8.9,16-8.9
				C357.3,15.4,359.4,15.6,360.8,16L360.8,16z"/>
		</g>
		<path d="M212.8,69.5v56.1h-12.9V81.3L181,125.7h-12.3l-18.8-44.3v44.3H137V69.5h20.1l17.7,43.1l17.8-43.1L212.8,69.5L212.8,69.5z"
			/>
		<path d="M223.2,82.9v42.7h12.1V82.9C235.3,82.9,223.2,82.9,223.2,82.9z"/>
		
			<linearGradient id="SVGID_00000127009081183843897320000000661022836976852151_" gradientUnits="userSpaceOnUse" x1="222.96" y1="55.775" x2="235.55" y2="55.775" gradientTransform="matrix(1 0 0 -1 0 128)">
			<stop  offset="0" style="stop-color:#281DFF"/>
			<stop  offset="1" style="stop-color:#C231FF"/>
		</linearGradient>
		<path style="fill:url(#SVGID_00000127009081183843897320000000661022836976852151_);" d="M235.6,72.3c0,3.6-2.6,5.7-6.3,5.7
			s-6.2-2.1-6.2-5.7s2.6-5.8,6.2-5.8S235.6,68.6,235.6,72.3z"/>
		<path d="M290.7,97.4v28.3h-12.2v-25.3c0-5.1-3-9.5-10.5-9.5s-10.9,4.6-10.9,9.5v25.3h-12.2V82.9h12.2v6c1.8-2.6,7.1-7.1,16.2-7.1
			C284.3,81.8,290.7,87.7,290.7,97.4L290.7,97.4z"/>
		<path d="M348,69.5v56.1h-12.2v-5.3c-3.1,4-8.1,6.5-15.3,6.5c-12.4,0-22.6-8-22.6-22.5s10.2-22.5,22.6-22.5
			c7.2,0,12.2,2.5,15.3,6.5V69.5L348,69.5L348,69.5z M337.4,104.3c0-9-5.4-14.2-14.1-14.2s-13.9,5.2-13.9,14.2s5,14.1,13.9,14.1
			S337.4,113.3,337.4,104.3z"/>
		<path class="st2" d="M15.7,61.9c8.9,4.5,17.6,4.5,26.2,0"/>
		<path class="st2" d="M62.8,61.9c8.9,4.5,17.6,4.5,26.2,0"/>
	</g>
</g>
</svg>
