<?xml version="1.0" encoding="UTF-8"?>
<svg id="Calque_2" data-name="Calque 2" xmlns="http://www.w3.org/2000/svg" xmlns:xlink="http://www.w3.org/1999/xlink" version="1.1" viewBox="0 0 202.6 71.2">
  <defs>
    <style>
      .cls-1 {
        fill: none;
        stroke: #f6f6f6;
      }

      .cls-1, .cls-2 {
        stroke-miterlimit: 10;
      }

      .cls-2 {
        fill: url(#Dégradé_sans_nom_9);
        stroke: #fff;
      }

      .cls-3 {
        fill: #fff;
      }

      .cls-3, .cls-4 {
        stroke-width: 0px;
      }

      .cls-4 {
        fill: url(#Dégradé_sans_nom_14);
      }
    </style>
    <linearGradient id="Dégradé_sans_nom_14" data-name="Dégradé sans nom 14" x1="125.2" y1="-660.6" x2="132.2" y2="-660.6" gradientTransform="translate(0 -620) scale(1 -1)" gradientUnits="userSpaceOnUse">
      <stop offset="0" stop-color="#281dff"/>
      <stop offset="1" stop-color="#c231ff"/>
    </linearGradient>
    <linearGradient id="Dégradé_sans_nom_9" data-name="Dégradé sans nom 9" x1="1.1" y1="36.7" x2="59.7" y2="36.7" gradientTransform="translate(0 74) scale(1 -1)" gradientUnits="userSpaceOnUse">
      <stop offset="0" stop-color="#281dff"/>
      <stop offset="1" stop-color="#c231ff"/>
    </linearGradient>
  </defs>
  <g id="Calque_1-2" data-name="Calque 1-2">
    <g>
      <path class="cls-3" d="M99.4,20.8h7.5c-1.5,9.4-9.4,13.1-17.7,13.1s-17.9-4.6-17.9-16.4S80.1,1.1,89.2,1.1s16.2,3.8,17.7,13.1h-7.5c-.9-4.1-3.6-7.7-10.1-7.7s-10.5,4.8-10.5,10.9,2.9,10.9,10.5,10.9,9.2-3.6,10.1-7.7c0,0,0,.2,0,.2Z"/>
      <path class="cls-3" d="M117.8,0v33.2h-6.8V0h6.8Z"/>
      <path class="cls-3" d="M128,23c.5,3.3,2.8,6.2,7.8,6.2s6-1.6,6.9-3.6h6c-1.6,6-7,8.4-13,8.4s-14-3.8-14-12.6,7.1-12.6,13.9-12.6,14.2,4.3,13.5,14.4h-21.3l.2-.2h0ZM128.2,18.5h14.8c-.7-2.9-2.8-5.2-7.2-5.2s-6.7,2.3-7.6,5.2Z"/>
      <path class="cls-3" d="M177.8,17.6v15.6h-6.8v-3.2c-1,1.6-4.5,3.9-9.9,3.9s-9.5-2.3-9.5-7.1,2.6-9.1,19.4-8.1v-1.1c0-2.5-1.1-4.4-6.1-4.4s-5.4,1.2-5.8,2.9h-6.4c.8-5.3,5.6-7.6,12.2-7.6s12.9,2,12.9,9.1h0ZM171,22.8c-9.1-.5-12.5.4-12.5,3.8s1.7,3.1,4.6,3.1,6.6-1.4,7.8-3.6v-3.4h0Z"/>
      <path class="cls-3" d="M202.6,9v6.3h-.2c-.9-.4-2.5-.8-4.6-.8-5.7,0-7.7,3.6-7.7,7.3v11.4h-6.8V9.2h6.8v4.4c1-1.7,3.8-5,9-5s2.8.1,3.6.4h-.1Z"/>
    </g>
    <path class="cls-3" d="M119.5,39v31.5h-7.2v-24.9l-10.6,24.9h-6.9l-10.6-24.9v24.9h-7.2v-31.5h11.3l9.9,24.2,10-24.2h11.3,0Z"/>
    <path class="cls-3" d="M125.3,46.6v24h6.8v-24h-6.8Z"/>
    <path class="cls-4" d="M132.2,40.6c0,2-1.5,3.2-3.6,3.2s-3.5-1.2-3.5-3.2,1.4-3.2,3.5-3.2,3.6,1.2,3.6,3.2Z"/>
    <path class="cls-3" d="M163.2,54.7v15.9h-6.8v-14.2c0-2.9-1.7-5.4-5.9-5.4s-6.1,2.6-6.1,5.4v14.2h-6.8v-24h6.8v3.4c1-1.4,4-4,9.1-4s9.8,3.3,9.8,8.7h-.1Z"/>
    <path class="cls-3" d="M195.4,39v31.5h-6.8v-3c-1.8,2.2-4.6,3.7-8.6,3.7-7,0-12.7-4.5-12.7-12.7s5.7-12.7,12.7-12.7,6.8,1.4,8.6,3.7v-10.5s6.8,0,6.8,0ZM189.4,58.6c0-5-3-8-7.9-8s-7.8,2.9-7.8,8,2.8,7.9,7.8,7.9,7.9-2.9,7.9-7.9Z"/>
    <path class="cls-2" d="M59.2,42.3c-.3,1.4-.6,2.8-1.1,4.1-1.2,3.4-2.9,6.5-5.1,9.1-6.6,8-17.3,12.2-28.2,10.1-9-1.7-16.3-7.4-20.3-14.9-.5-1-1-2-1.4-3-.2-.4-.3-.9-.5-1.3-.8-2.3-1.3-4.8-1.5-7.3h0c-.2-2.3,0-4.5.4-6.8C4.7,16.4,20.1,6,36,9c11.3,2.2,19.9,10.6,22.8,21,.4,1.3.6,2.6.8,4h0c.3,2.7,0,5.5-.4,8.3Z"/>
    <path class="cls-1" d="M8.8,34.8c5,2.5,9.9,2.5,14.7,0"/>
    <path class="cls-1" d="M35.3,34.8c5,2.5,9.9,2.5,14.7,0"/>
  </g>
</svg>