<?xml version="1.0" encoding="utf-8"?>
<!-- Generator: Adobe Illustrator 27.9.3, SVG Export Plug-In . SVG Version: 9.03 Build 53313)  -->
<svg version="1.1" id="Calque_1" xmlns="http://www.w3.org/2000/svg" xmlns:xlink="http://www.w3.org/1999/xlink" x="0px" y="0px"
	 viewBox="0 0 800 800" style="enable-background:new 0 0 800 800;" xml:space="preserve">
<style type="text/css">
	.st0{fill:#D6AB7F;}
	.st1{fill:#6A576D;}
	.st2{fill:#FFFFFF;}
</style>
<path class="st0" d="M723.1,679.4H76.9c-17.5,0-31.2-13.8-31.2-31.2V231.2c0-17.5,13.8-31.2,31.2-31.2h645.6
	c17.5,0,31.2,13.8,31.2,31.2v416.9C754.4,665,740,679.4,723.1,679.4L723.1,679.4z"/>
<path class="st1" d="M723.1,685.6H76.9c-20.6,0-37.5-16.9-37.5-37.5V231.2c0-20.6,16.9-37.5,37.5-37.5h645.6
	c20.6,0,37.5,16.9,37.5,37.5v416.9C760.6,668.8,743.8,685.6,723.1,685.6L723.1,685.6z M76.9,206.2c-13.7,0-25,11.2-25,25v416.9
	c0,13.7,11.3,25,25,25h645.6c13.7,0,25-11.3,25-25V231.2c0-13.8-11.3-25-25-25H76.9z"/>
<path class="st1" d="M723.1,200H76.9c-17.5,0-31.2,13.8-31.2,31.2v51.2c3.1,0.6,6.9,0.6,10.6,0.6h687.5c3.8,0,6.9-0.6,10.6-0.6
	v-51.2C754.4,213.8,740,200,723.1,200z"/>
<path class="st0" d="M743.8,245.6H56.2c-17.5,0-31.2-13.8-31.2-31.2v-62.5c0-17.5,13.8-31.3,31.2-31.3h687.5
	c17.5,0,31.2,13.8,31.2,31.3v62.5C775,231.9,761.2,245.6,743.8,245.6z"/>
<path class="st2" d="M493.8,431.2H306.2c-17.5,0-31.2-13.7-31.2-31.2v-20.6c0-17.5,13.8-31.2,31.2-31.2h187.5
	c17.5,0,31.2,13.8,31.2,31.2V400C525,417.5,511.3,431.2,493.8,431.2z"/>
<path class="st1" d="M493.8,437.5H306.2c-20.6,0-37.5-16.9-37.5-37.5v-20.6c0-20.6,16.9-37.5,37.5-37.5h187.5
	c20.6,0,37.5,16.9,37.5,37.5V400C531.2,420.6,514.4,437.5,493.8,437.5z M306.2,354.4c-13.8,0-25,11.2-25,25V400
	c0,13.7,11.2,25,25,25h187.5c13.7,0,25-11.3,25-25v-20.6c0-13.8-11.3-25-25-25H306.2z"/>
<path class="st1" d="M743.8,251.9H56.2c-20.6,0-37.5-16.9-37.5-37.5v-62.5c0-20.6,16.9-37.5,37.5-37.5h687.5
	c20.6,0,37.5,16.9,37.5,37.5v62.5C781.2,235,764.4,251.9,743.8,251.9z M56.2,126.9c-13.8,0-25,11.2-25,25v62.5c0,13.8,11.2,25,25,25
	h687.5c13.8,0,25-11.2,25-25v-62.5c0-13.8-11.2-25-25-25H56.2z"/>
</svg>
