<?xml version="1.0" encoding="UTF-8"?>
<svg id="Calque_1" data-name="Calque 1" xmlns="http://www.w3.org/2000/svg" version="1.1" viewBox="0 0 800 800">
  <defs>
    <style>
      .cls-1 {
        fill: #6331ff;
      }

      .cls-1, .cls-2, .cls-3 {
        stroke-width: 0px;
      }

      .cls-2 {
        fill: #c2a9ff;
      }

      .cls-3 {
        fill: #fff;
      }
    </style>
  </defs>
  <path class="cls-2" d="M723.1,679.4H76.9c-17.5,0-31.2-13.8-31.2-31.2V231.2c0-17.5,13.8-31.2,31.2-31.2h645.6c17.5,0,31.2,13.8,31.2,31.2v416.9c.7,16.9-13.7,31.3-30.6,31.3h0Z"/>
  <path class="cls-1" d="M723.1,685.6H76.9c-20.6,0-37.5-16.9-37.5-37.5V231.2c0-20.6,16.9-37.5,37.5-37.5h645.6c20.6,0,37.5,16.9,37.5,37.5v416.9c.6,20.7-16.2,37.5-36.9,37.5h0ZM76.9,206.2c-13.7,0-25,11.2-25,25v416.9c0,13.7,11.3,25,25,25h645.6c13.7,0,25-11.3,25-25V231.2c0-13.8-11.3-25-25-25H76.9Z"/>
  <path class="cls-1" d="M723.1,200H76.9c-17.5,0-31.2,13.8-31.2,31.2v51.2c3.1.6,6.9.6,10.6.6h687.5c3.8,0,6.9-.6,10.6-.6v-51.2c0-17.4-14.4-31.2-31.3-31.2Z"/>
  <path class="cls-2" d="M743.8,245.6H56.2c-17.5,0-31.2-13.8-31.2-31.2v-62.5c0-17.5,13.8-31.3,31.2-31.3h687.5c17.5,0,31.2,13.8,31.2,31.3v62.5c0,17.5-13.7,31.2-31.1,31.2Z"/>
  <path class="cls-3" d="M493.8,431.2h-187.6c-17.5,0-31.2-13.7-31.2-31.2v-20.6c0-17.5,13.8-31.2,31.2-31.2h187.5c17.5,0,31.2,13.8,31.2,31.2v20.6c0,17.5-13.6,31.2-31.1,31.2Z"/>
  <path class="cls-1" d="M493.8,437.5h-187.6c-20.6,0-37.5-16.9-37.5-37.5v-20.6c0-20.6,16.9-37.5,37.5-37.5h187.5c20.6,0,37.5,16.9,37.5,37.5v20.6c0,20.6-16.8,37.5-37.4,37.5ZM306.2,354.4c-13.8,0-25,11.2-25,25v20.6c0,13.7,11.2,25,25,25h187.5c13.7,0,25-11.3,25-25v-20.6c0-13.8-11.3-25-25-25h-187.5Z"/>
  <path class="cls-1" d="M743.8,251.9H56.2c-20.6,0-37.5-16.9-37.5-37.5v-62.5c0-20.6,16.9-37.5,37.5-37.5h687.5c20.6,0,37.5,16.9,37.5,37.5v62.5c0,20.6-16.8,37.5-37.4,37.5ZM56.2,126.9c-13.8,0-25,11.2-25,25v62.5c0,13.8,11.2,25,25,25h687.5c13.8,0,25-11.2,25-25v-62.5c0-13.8-11.2-25-25-25,0,0-687.5,0-687.5,0Z"/>
</svg>