<?xml version="1.0" encoding="utf-8"?>
<!-- Generator: Adobe Illustrator 27.9.3, SVG Export Plug-In . SVG Version: 9.03 Build 53313)  -->
<svg version="1.1" id="Calque_1" xmlns="http://www.w3.org/2000/svg" xmlns:xlink="http://www.w3.org/1999/xlink" x="0px" y="0px"
	 viewBox="0 0 800 800" style="enable-background:new 0 0 800 800;" xml:space="preserve">
<style type="text/css">
	.st0{fill:#F2E5CA;}
	.st1{fill:#D6AB7F;stroke:#6A576D;stroke-width:10;stroke-miterlimit:10;}
</style>
<g id="Icons">
	<path class="st0" d="M200,300h400c55.2,0,100,44.8,100,100v266.7c0,55.2-44.8,100-100,100H200c-55.2,0-100-44.8-100-100V400
		C100,344.8,144.8,300,200,300z"/>
	<path class="st0" d="M200,300h400c55.2,0,100,44.8,100,100v100c0,55.2-44.8,100-100,100H200c-55.2,0-100-44.8-100-100V400
		C100,344.8,144.8,300,200,300z"/>
	<circle class="st0" cx="400" cy="500" r="66.7"/>
</g>
<g id="Layer_4">
	<path class="st1" d="M233.3,266.7H200c-73.6,0-133.3,59.7-133.3,133.3v266.7C66.7,740.3,126.4,800,200,800h400
		c73.6,0,133.3-59.7,133.3-133.3V400c0-73.6-59.7-133.3-133.3-133.3V200C600.2,89.5,510.8-0.2,400.4-0.4
		C305.1-0.5,222.9,66.6,204,160c-3.7,18.1,8,35.7,26,39.4c18.1,3.7,35.7-8,39.4-26c14.7-72.2,85-118.8,157.2-104.1
		c62.2,12.6,106.9,67.3,106.8,130.8v66.7H233.3z M666.7,400v266.7c0,36.8-29.8,66.7-66.7,66.7H200c-36.8,0-66.7-29.8-66.7-66.7V400
		c0-36.8,29.8-66.7,66.7-66.7h400C636.8,333.3,666.7,363.2,666.7,400z"/>
	<path class="st1" d="M400,400c-55.1-0.1-99.9,44.5-100,99.6c-0.1,42.4,26.6,80.2,66.6,94.3v39.5c0,18.4,14.9,33.3,33.3,33.3
		c18.4,0,33.3-14.9,33.3-33.3v-39.5c52-18.3,79.3-75.3,61-127.2C480.2,426.6,442.4,399.9,400,400z M400,533.3
		c-18.4,0-33.3-14.9-33.3-33.3c0-18.4,14.9-33.3,33.3-33.3c18.4,0,33.3,14.9,33.3,33.3C433.3,518.4,418.4,533.3,400,533.3z"/>
</g>
</svg>
