<?xml version="1.0" encoding="UTF-8"?>
<svg id="Calque_1" data-name="Calque 1" xmlns="http://www.w3.org/2000/svg" version="1.1" viewBox="0 0 800 800">
  <defs>
    <style>
      .cls-1 {
        fill: #d9d2ff;
        stroke-width: 0px;
      }

      .cls-2 {
        fill: #c2a9ff;
        stroke: #6331ff;
        stroke-miterlimit: 10;
        stroke-width: 10px;
      }
    </style>
  </defs>
  <g id="Icons">
    <path class="cls-1" d="M200,300h400c55.2,0,100,44.8,100,100v266.7c0,55.2-44.8,100-100,100H200c-55.2,0-100-44.8-100-100v-266.7c0-55.2,44.8-100,100-100Z"/>
    <path class="cls-1" d="M200,300h400c55.2,0,100,44.8,100,100v100c0,55.2-44.8,100-100,100H200c-55.2,0-100-44.8-100-100v-100c0-55.2,44.8-100,100-100Z"/>
    <circle class="cls-1" cx="400" cy="500" r="66.7"/>
  </g>
  <g id="Layer_4" data-name="Layer 4">
    <path class="cls-2" d="M233.3,266.7h-33.3c-73.6,0-133.3,59.7-133.3,133.3v266.7c0,73.6,59.7,133.3,133.3,133.3h400c73.6,0,133.3-59.7,133.3-133.3v-266.7c0-73.6-59.7-133.3-133.3-133.3v-66.7C600.2,89.5,510.8-.2,400.4-.4c-95.3,0-177.5,67-196.4,160.4-3.7,18.1,8,35.7,26,39.4,18.1,3.7,35.7-8,39.4-26,14.7-72.2,85-118.8,157.2-104.1,62.2,12.6,106.9,67.3,106.8,130.8v66.7H233.3ZM666.7,400v266.7c0,36.8-29.8,66.7-66.7,66.7H200c-36.8,0-66.7-29.8-66.7-66.7v-266.7c0-36.8,29.8-66.7,66.7-66.7h400c36.8,0,66.7,29.9,66.7,66.7Z"/>
    <path class="cls-2" d="M400,400c-55.1-.1-99.9,44.5-100,99.6-.1,42.4,26.6,80.2,66.6,94.3v39.5c0,18.4,14.9,33.3,33.3,33.3s33.3-14.9,33.3-33.3v-39.5c52-18.3,79.3-75.3,61-127.2-14-40.1-51.8-66.8-94.2-66.7ZM400,533.3c-18.4,0-33.3-14.9-33.3-33.3s14.9-33.3,33.3-33.3,33.3,14.9,33.3,33.3-14.9,33.3-33.3,33.3Z"/>
  </g>
</svg>