<?xml version="1.0" encoding="UTF-8"?>
<svg id="Layer_1" data-name="Layer 1" xmlns="http://www.w3.org/2000/svg" version="1.1" viewBox="0 0 800 800">
  <defs>
    <style>
      .cls-1 {
        fill: #6331ff;
      }

      .cls-1, .cls-2, .cls-3 {
        stroke-width: 0px;
      }

      .cls-2 {
        fill: #231f20;
        isolation: isolate;
        opacity: .2;
      }

      .cls-3 {
        fill: #c2a9ff;
      }

      .cls-4 {
        fill: #d9d2ff;
        stroke: #d9d2ff;
        stroke-miterlimit: 10;
      }
    </style>
  </defs>
  <path class="cls-4" d="M700,775H125c-27.6,0-50-22.4-50-50s22.4-50,50-50h575v100Z"/>
  <g>
    <path class="cls-3" d="M75,50v619.2c13.3-11.9,30.8-19.2,50-19.2h25V25h-50c-13.8,0-25,11.2-25,25Z"/>
    <path class="cls-3" d="M700,25H175v625h550V50c0-13.8-11.2-25-25-25Z"/>
  </g>
  <g>
    <path class="cls-1" d="M750,650V50c0-27.6-22.4-50-50-50H100c-27.6,0-50,22.4-50,50v675c0,41.4,33.6,75,75,75h612.5c6.9,0,12.5-5.6,12.5-12.5s-5.6-12.5-12.5-12.5h-12.5v-100c13.8,0,25-11.2,25-25ZM75,50c0-13.8,11.2-25,25-25h50v625h-25c-19.2,0-36.7,7.3-50,19.2V50ZM700,775H125c-27.6,0-50-22.4-50-50s22.4-50,50-50h575v100ZM700,650H175V25h525c13.8,0,25,11.2,25,25v600h-25Z"/>
    <path class="cls-1" d="M537.5,325h-250c-6.9,0-12.5,5.6-12.5,12.5s5.6,12.5,12.5,12.5h250c6.9,0,12.5-5.6,12.5-12.5s-5.6-12.5-12.5-12.5Z"/>
    <path class="cls-1" d="M612.5,250h-325c-6.9,0-12.5,5.6-12.5,12.5s5.6,12.5,12.5,12.5h325c6.9,0,12.5-5.6,12.5-12.5s-5.6-12.5-12.5-12.5Z"/>
    <path class="cls-1" d="M287.5,200h150c6.9,0,12.5-5.6,12.5-12.5s-5.6-12.5-12.5-12.5h-150c-6.9,0-12.5,5.6-12.5,12.5s5.6,12.5,12.5,12.5Z"/>
  </g>
  <path class="cls-2" d="M75,50v619.2c13.3-11.9,30.8-19.2,50-19.2h25V25h-50c-13.8,0-25,11.2-25,25Z"/>
</svg>