<?xml version="1.0" encoding="utf-8"?>
<!-- Generator: Adobe Illustrator 27.9.3, SVG Export Plug-In . SVG Version: 9.03 Build 53313)  -->
<svg version="1.1" id="Layer_1" xmlns="http://www.w3.org/2000/svg" xmlns:xlink="http://www.w3.org/1999/xlink" x="0px" y="0px"
	 viewBox="0 0 800 800" style="enable-background:new 0 0 800 800;" xml:space="preserve">
<style type="text/css">
	.st0{fill:#F2E5CA;}
	.st1{fill:#D6AB7F;}
	.st2{fill:#6A576D;}
	.st3{opacity:0.2;fill:#231F20;enable-background:new    ;}
</style>
<g>
	<path class="st0" d="M700,775H125c-27.6,0-50-22.4-50-50s22.4-50,50-50h575V775z"/>
	<g>
		<path class="st1" d="M75,50v619.2c13.3-11.9,30.8-19.2,50-19.2h25V25h-50C86.2,25,75,36.2,75,50z"/>
		<path class="st1" d="M700,25H175v625h525h25v-25V50C725,36.2,713.8,25,700,25z"/>
	</g>
	<g>
		<path class="st2" d="M750,650V50c0-27.6-22.4-50-50-50H100C72.4,0,50,22.4,50,50v675c0,41.4,33.6,75,75,75h612.5
			c6.9,0,12.5-5.6,12.5-12.5s-5.6-12.5-12.5-12.5H725V675C738.8,675,750,663.8,750,650z M75,50c0-13.8,11.2-25,25-25h50v625h-25
			c-19.2,0-36.7,7.3-50,19.2V50z M700,775H125c-27.6,0-50-22.4-50-50s22.4-50,50-50h575V775z M700,650H175V25h525
			c13.8,0,25,11.2,25,25v575v25H700z"/>
		<path class="st2" d="M537.5,325h-250c-6.9,0-12.5,5.6-12.5,12.5s5.6,12.5,12.5,12.5h250c6.9,0,12.5-5.6,12.5-12.5
			S544.4,325,537.5,325z"/>
		<path class="st2" d="M612.5,250h-325c-6.9,0-12.5,5.6-12.5,12.5c0,6.9,5.6,12.5,12.5,12.5h325c6.9,0,12.5-5.6,12.5-12.5
			C625,255.6,619.4,250,612.5,250z"/>
		<path class="st2" d="M287.5,200h150c6.9,0,12.5-5.6,12.5-12.5s-5.6-12.5-12.5-12.5h-150c-6.9,0-12.5,5.6-12.5,12.5
			S280.6,200,287.5,200z"/>
	</g>
	<path class="st3" d="M75,50v619.2c13.3-11.9,30.8-19.2,50-19.2h25V25h-50C86.2,25,75,36.2,75,50z"/>
</g>
</svg>
