<?xml version="1.0" encoding="utf-8"?>
<!-- Generator: Adobe Illustrator 27.9.3, SVG Export Plug-In . SVG Version: 9.03 Build 53313)  -->
<svg version="1.1" id="Calque_1" xmlns="http://www.w3.org/2000/svg" xmlns:xlink="http://www.w3.org/1999/xlink" x="0px" y="0px"
	 viewBox="0 0 800 800" style="enable-background:new 0 0 800 800;" xml:space="preserve">
<style type="text/css">
	.st0{fill:url(#SVGID_1_);}
</style>
<linearGradient id="SVGID_1_" gradientUnits="userSpaceOnUse" x1="105.3423" y1="400.0436" x2="686.4" y2="400.0436">
	<stop  offset="0" style="stop-color:#281DFF"/>
	<stop  offset="1" style="stop-color:#C231FF"/>
</linearGradient>
<path class="st0" d="M653,222.9c-68.3-14.6-119.2-71.9-125.7-141.5V66.7H412.5v455.7c-0.2,53.3-43.6,96.4-96.9,96.2
	c-30-0.1-58.3-14.2-76.5-38.1l-0.1,0l0.1,0c-32.2-42.4-24-103,18.5-135.2c25-19,57.7-24.6,87.6-15.1V313.5
	c-115.4-16-221.9,64.7-237.9,180.1c-8.9,64.6,12.5,129.7,58.1,176.3c81.5,83.3,215,84.9,298.4,3.4c40.6-39.7,63.5-94.1,63.5-150.9
	V289.6c46.4,33.2,102.1,51,159.1,50.9V226.3C675.2,226.3,664,225.2,653,222.9z"/>
</svg>
