<?xml version="1.0" encoding="UTF-8"?>
<svg id="Calque_1" data-name="Calque 1" xmlns="http://www.w3.org/2000/svg" version="1.1" viewBox="0 0 800 800">
  <defs>
    <style>
      .cls-1 {
        fill: #6331ff;
      }

      .cls-1, .cls-2, .cls-3, .cls-4 {
        stroke-width: 0px;
      }

      .cls-2 {
        fill: #d9d2ff;
      }

      .cls-3 {
        fill: #a171ff;
      }

      .cls-4 {
        fill: #c2a9ff;
      }
    </style>
  </defs>
  <path class="cls-4" d="M570,680c0,22-18,40-40,40h-260c-22,0-40-18-40-40V140c0-22,18-40,40-40h260c22,0,40,18,40,40v540h0Z"/>
  <path class="cls-1" d="M530,730h-260c-28,0-50-22-50-50V140c0-28,22-50,50-50h260c28,0,50,22,50,50v540c0,28-22,50-50,50ZM270,110c-17,0-30,13-30,30v540c0,17,13,30,30,30h260c17,0,30-13,30-30V140c0-17-13-30-30-30h-260Z"/>
  <path class="cls-2" d="M540,582c0,10-9,18-20,18h-240c-11,0-20-8-20-18V198c0-10,9-18,20-18h240c11,0,20,8,20,18v384h0Z"/>
  <path class="cls-1" d="M520,610h-240c-17,0-30-13-30-28V198c0-16,13-28,30-28h240c17,0,30,13,30,28v384c0,15-13,28-30,28ZM280,190c-6,0-10,4-10,8v384c0,4,4,8,10,8h240c6,0,10-4,10-8V198c0-4-4-8-10-8h-240Z"/>
  <path class="cls-3" d="M370,660c0,16.6,13.4,30,30,30s30-13.4,30-30-13.4-30-30-30-30,13.4-30,30h0Z"/>
  <path class="cls-1" d="M400,700c-22,0-40-18-40-40s18-40,40-40,40,18,40,40-18,40-40,40ZM400,640c-11,0-20,9-20,20s9,20,20,20,20-9,20-20-9-20-20-20h0Z"/>
  <path class="cls-1" d="M360,130h80v20h-80v-20Z"/>
</svg>